<svg xmlns="http://www.w3.org/2000/svg" viewBox="0 0 1200 630" width="1200" height="630" role="img" aria-labelledby="title desc">
  <title id="title">Portafolio profesional — Clase 12</title>
  <desc id="desc">Ilustración con tarjeta de proyectos y barras de contenido en colores del curso.</desc>
  <defs>
    <linearGradient id="bg" x1="0" y1="0" x2="0" y2="1">
      <stop offset="0" stop-color="#cfe0ea"/>
      <stop offset="0.45" stop-color="#dfe8ee"/>
      <stop offset="1" stop-color="#ffffff"/>
    </linearGradient>
    <filter id="shadow" x="-20%" y="-20%" width="140%" height="140%">
      <feDropShadow dx="0" dy="8" stdDeviation="12" flood-color="rgba(0,0,0,0.18)"/>
    </filter>
  </defs>
  <rect width="1200" height="630" fill="url(#bg)"/>
  <g transform="translate(120,110)" filter="url(#shadow)">
    <rect width="960" height="410" rx="22" fill="#ffffff" stroke="#e6ebef"/>
    <g transform="translate(40,40)">
      <rect x="0" y="0" width="380" height="220" rx="14" fill="#f7f9fb" stroke="#e6ebef"/>
      <rect x="420" y="0" width="360" height="16" rx="8" fill="#2f6e93"/>
      <rect x="420" y="36" width="420" height="14" rx="7" fill="#e6eef4"/>
      <rect x="420" y="64" width="360" height="14" rx="7" fill="#e6eef4"/>
      <rect x="420" y="92" width="300" height="14" rx="7" fill="#e6eef4"/>
      <rect x="0" y="252" width="280" height="14" rx="7" fill="#e6eef4"/>
      <rect x="0" y="282" width="320" height="14" rx="7" fill="#e6eef4"/>
      <rect x="0" y="312" width="260" height="14" rx="7" fill="#e6eef4"/>
    </g>
  </g>
  <g font-family="system-ui,Segoe UI,Roboto,Arial" fill="#254b5a">
    <text x="120" y="88" font-size="34">Portafolio profesional</text>
    <text x="120" y="120" font-size="18" fill="#5b6b75">HTML semántico · Accesibilidad · SEO</text>
  </g>
</svg>

